<svg xmlns="http://www.w3.org/2000/svg" viewBox="0 0 512 512">
  <defs>
    <linearGradient id="bg" x1="0" y1="0" x2="1" y2="1">
      <stop offset="0" stop-color="#0a3a5c"/>
      <stop offset="0.55" stop-color="#1d7aa8"/>
      <stop offset="1" stop-color="#2bb89e"/>
    </linearGradient>
    <linearGradient id="seal" x1="0" y1="0" x2="0" y2="1">
      <stop offset="0" stop-color="#9ff4ff" stop-opacity="0.98"/>
      <stop offset="1" stop-color="#9ff4ff" stop-opacity="0.7"/>
    </linearGradient>
  </defs>
  <rect width="512" height="512" rx="112" fill="url(#bg)"/>
  <!-- Underwater wave layers -->
  <path d="M48 320 C 128 264, 192 376, 272 320 C 352 264, 416 376, 496 320 L 496 460 C 416 460, 352 460, 272 460 C 192 460, 128 460, 48 460 Z" fill="#0a3a5c" opacity="0.45"/>
  <path d="M48 360 C 128 308, 192 412, 272 360 C 352 308, 416 412, 496 360 L 496 480 L 48 480 Z" fill="#062032" opacity="0.55"/>
  <!-- Seal silhouette (scaled and centered) -->
  <g transform="translate(96 160) scale(10)">
    <path
      d="M5 19 C5 13 11 9 16 9 C18 9 19 8 20.5 8 C22 8 22 10.5 20 11.5 C22 12 24 12.5 25 13.5 C27 14 28.5 15.5 29 17 L30.5 14 L30.5 22 L29 19 C28 21 26 22 23 22 C18 23 11 23 7 22 C5 21.5 5 20 5 19 Z"
      fill="url(#seal)"
    />
    <circle cx="19.5" cy="11" r="0.9" fill="#04101c" opacity="0.85"/>
  </g>
</svg>
