<svg xmlns="http://www.w3.org/2000/svg" viewBox="0 0 512 512">
  <defs>
    <linearGradient id="bg" x1="0" y1="0" x2="1" y2="1">
      <stop offset="0" stop-color="#0a3a5c"/>
      <stop offset="0.55" stop-color="#1d7aa8"/>
      <stop offset="1" stop-color="#2bb89e"/>
    </linearGradient>
    <linearGradient id="seal" x1="0" y1="0" x2="0" y2="1">
      <stop offset="0" stop-color="#9ff4ff" stop-opacity="0.98"/>
      <stop offset="1" stop-color="#9ff4ff" stop-opacity="0.7"/>
    </linearGradient>
  </defs>
  <rect width="512" height="512" rx="112" fill="url(#bg)"/>
  <!-- Underwater wave layers -->
  <path d="M48 380 C 128 332, 192 432, 272 380 C 352 332, 416 432, 496 380 L 496 470 C 416 470, 352 470, 272 470 C 192 470, 128 470, 48 470 Z" fill="#0a3a5c" opacity="0.45"/>
  <path d="M48 420 C 128 376, 192 460, 272 420 C 352 376, 416 460, 496 420 L 496 484 L 48 484 Z" fill="#062032" opacity="0.55"/>
  <!-- Standing sea lion silhouette, scaled from 32-grid: viewBox 0..32 mapped to 64..448 (16-unit scale) -->
  <g transform="translate(64 16) scale(13.5)">
    <path
      d="M15 3 C17 2.4 19 2.6 20.2 4 L22.4 3.6 L23 5.6 L21.4 6.4 C22 7.4 22 8.4 21.4 9.2 C22.6 10.2 23 11.6 23 13.4 C23 16.4 21.8 19.2 20.6 21.6 C21.6 23 24 24.6 25.8 26 L26.4 27.4 L20 27.4 L18.4 25.8 L18 21.4 L14 21.4 L13.6 25.8 L12 27.4 L5.6 27.4 L6.2 26 C8 24.6 10.4 23 11.4 21.6 C10.2 19.2 9 16.4 9 13.4 C9 11.6 9.4 10.2 10.6 9.2 C10 8.4 10 7.4 10.6 6.4 L9 5.6 L9.6 3.6 L11.8 4 C12.7 2.9 13.8 2.6 15 3 Z"
      fill="url(#seal)"
    />
    <circle cx="17.6" cy="6.4" r="0.95" fill="#04101c" opacity="0.85"/>
    <circle cx="20.4" cy="5.4" r="0.6" fill="#04101c" opacity="0.6"/>
  </g>
</svg>
